<mxfile host="www.draw.io" modified="2020-02-04T08:57:01.826Z" agent="Mozilla/5.0 (Windows NT 10.0; Win64; x64) AppleWebKit/537.36 (KHTML, like Gecko) Chrome/79.0.3945.117 Safari/537.36" etag="w8RJN7d6yod4CdW4t_F0" version="12.5.8" type="github">
  <diagram id="f1G10Uk0I8xlLbY-ibDH" name="Page-1">
    <mxGraphModel dx="2031" dy="1089" grid="1" gridSize="10" guides="1" tooltips="1" connect="1" arrows="1" fold="1" page="1" pageScale="1" pageWidth="826" pageHeight="1169" math="0" shadow="0">
      <root>
        <mxCell id="0"/>
        <mxCell id="1" parent="0"/>
        <mxCell id="HdowyF9w5pSxeO63uC46-30" value="Learning Psth" style="shape=cylinder;whiteSpace=wrap;html=1;boundedLbl=1;backgroundOutline=1;rotation=90;spacingBottom=200;verticalAlign=top;horizontal=0;fontSize=19;" vertex="1" parent="1">
          <mxGeometry x="330.93" y="655" width="195.07" height="600" as="geometry"/>
        </mxCell>
        <mxCell id="HdowyF9w5pSxeO63uC46-25" value="&lt;b&gt;&lt;font style=&quot;font-size: 20px&quot;&gt;Course&lt;br&gt;&lt;/font&gt;&lt;/b&gt;" style="rounded=0;whiteSpace=wrap;html=1;spacingBottom=270;" vertex="1" parent="1">
          <mxGeometry x="60" y="460" width="730" height="307.12" as="geometry"/>
        </mxCell>
        <mxCell id="HdowyF9w5pSxeO63uC46-16" value="" style="shape=step;perimeter=stepPerimeter;whiteSpace=wrap;html=1;fixedSize=1;size=70;" vertex="1" parent="1">
          <mxGeometry x="70" y="500" width="270" height="244" as="geometry"/>
        </mxCell>
        <mxCell id="HdowyF9w5pSxeO63uC46-18" value="" style="shape=step;perimeter=stepPerimeter;whiteSpace=wrap;html=1;fixedSize=1;size=70;" vertex="1" parent="1">
          <mxGeometry x="510" y="500" width="270" height="244" as="geometry"/>
        </mxCell>
        <mxCell id="HdowyF9w5pSxeO63uC46-27" value="Course" style="rounded=0;whiteSpace=wrap;html=1;fontSize=19;" vertex="1" parent="1">
          <mxGeometry x="190.93" y="890" width="120" height="130" as="geometry"/>
        </mxCell>
        <mxCell id="HdowyF9w5pSxeO63uC46-28" value="Course" style="rounded=0;whiteSpace=wrap;html=1;fontSize=19;" vertex="1" parent="1">
          <mxGeometry x="340.93" y="890" width="120" height="130" as="geometry"/>
        </mxCell>
        <mxCell id="HdowyF9w5pSxeO63uC46-29" value="Course" style="rounded=0;whiteSpace=wrap;html=1;fontSize=19;" vertex="1" parent="1">
          <mxGeometry x="480.93" y="890" width="120" height="130" as="geometry"/>
        </mxCell>
        <mxCell id="HdowyF9w5pSxeO63uC46-31" value="Text" style="text;html=1;align=center;verticalAlign=middle;resizable=0;points=[];autosize=1;" vertex="1" parent="1">
          <mxGeometry x="573" y="247" width="40" height="20" as="geometry"/>
        </mxCell>
        <object label="" sub_section_name="" section_ID="" Prerequisites_IDs="" KSAT="[0,0,1,0]" Units="" id="HdowyF9w5pSxeO63uC46-8">
          <mxCell style="shape=hexagon;perimeter=hexagonPerimeter2;whiteSpace=wrap;html=1;" vertex="1" parent="1">
            <mxGeometry x="171.95564102564106" y="286.80176470588236" width="96.15384615384616" height="79.6078431372549" as="geometry"/>
          </mxCell>
        </object>
        <object label="" sub_section_name="" section_ID="" Prerequisites_IDs="" KSAT="[0,0,1,0]" Units="" id="HdowyF9w5pSxeO63uC46-9">
          <mxCell style="shape=hexagon;perimeter=hexagonPerimeter2;whiteSpace=wrap;html=1;" vertex="1" parent="1">
            <mxGeometry x="30.93" y="286.80176470588236" width="96.15384615384616" height="79.6078431372549" as="geometry"/>
          </mxCell>
        </object>
        <object label="" sub_section_name="" section_ID="" Prerequisites_IDs="" KSAT="[0,0,1,0]" Units="" id="HdowyF9w5pSxeO63uC46-10">
          <mxCell style="shape=hexagon;perimeter=hexagonPerimeter2;whiteSpace=wrap;html=1;" vertex="1" parent="1">
            <mxGeometry x="244.77282051282054" y="246.99568627450984" width="96.15384615384616" height="79.6078431372549" as="geometry"/>
          </mxCell>
        </object>
        <object label="&lt;b&gt;&lt;font style=&quot;font-size: 15px&quot;&gt;sub section&lt;/font&gt;&lt;/b&gt;" sub_section_name="" section_ID="" Prerequisites_IDs="" KSAT="[0,0,1,0]" Units="" MEG="[0,1,1]" Last_update="" id="HdowyF9w5pSxeO63uC46-11">
          <mxCell style="shape=hexagon;perimeter=hexagonPerimeter2;whiteSpace=wrap;html=1;size=0.26209523809523894;" vertex="1" parent="1">
            <mxGeometry x="101.44282051282053" y="246.99784313725493" width="96.15384615384616" height="79.6078431372549" as="geometry"/>
          </mxCell>
        </object>
        <mxCell id="HdowyF9w5pSxeO63uC46-14" value="&lt;b&gt;&lt;font style=&quot;font-size: 28px&quot;&gt;Section&lt;/font&gt;&lt;/b&gt;" style="shape=step;perimeter=stepPerimeter;whiteSpace=wrap;html=1;fixedSize=1;size=70;spacingBottom=150;" vertex="1" parent="1">
          <mxGeometry x="360" y="174.82" width="390" height="214" as="geometry"/>
        </mxCell>
        <object label="" sub_section_name="" section_ID="" Prerequisites_IDs="" KSAT="[0,0,1,0]" Units="" id="HdowyF9w5pSxeO63uC46-42">
          <mxCell style="shape=hexagon;perimeter=hexagonPerimeter2;whiteSpace=wrap;html=1;" vertex="1" parent="1">
            <mxGeometry x="551.0256410256411" y="294.62392156862745" width="96.15384615384616" height="79.6078431372549" as="geometry"/>
          </mxCell>
        </object>
        <object label="" sub_section_name="" section_ID="" Prerequisites_IDs="" KSAT="[0,0,1,0]" Units="" id="HdowyF9w5pSxeO63uC46-43">
          <mxCell style="shape=hexagon;perimeter=hexagonPerimeter2;whiteSpace=wrap;html=1;" vertex="1" parent="1">
            <mxGeometry x="410" y="294.62392156862745" width="96.15384615384616" height="79.6078431372549" as="geometry"/>
          </mxCell>
        </object>
        <object label="" sub_section_name="" section_ID="" Prerequisites_IDs="" KSAT="[0,0,1,0]" Units="" id="HdowyF9w5pSxeO63uC46-44">
          <mxCell style="shape=hexagon;perimeter=hexagonPerimeter2;whiteSpace=wrap;html=1;" vertex="1" parent="1">
            <mxGeometry x="619.0656410256412" y="254.82392156862744" width="96.15384615384616" height="79.6078431372549" as="geometry"/>
          </mxCell>
        </object>
        <object label="&lt;b&gt;&lt;font style=&quot;font-size: 15px&quot;&gt;sub section&lt;/font&gt;&lt;/b&gt;" sub_section_name="" section_ID="" Prerequisites_IDs="" KSAT="[0,0,1,0]" Units="" MEG="[0,1,1]" id="HdowyF9w5pSxeO63uC46-45">
          <mxCell style="shape=hexagon;perimeter=hexagonPerimeter2;whiteSpace=wrap;html=1;size=0.26209523809523894;" vertex="1" parent="1">
            <mxGeometry x="480.9328205128205" y="254.82784313725492" width="96.15384615384616" height="79.6078431372549" as="geometry"/>
          </mxCell>
        </object>
        <mxCell id="HdowyF9w5pSxeO63uC46-46" value="&lt;b&gt;&lt;font style=&quot;font-size: 28px&quot;&gt;Section&lt;/font&gt;&lt;/b&gt;" style="shape=step;perimeter=stepPerimeter;whiteSpace=wrap;html=1;fixedSize=1;size=70;spacingBottom=150;" vertex="1" parent="1">
          <mxGeometry x="288" y="500" width="265" height="244" as="geometry"/>
        </mxCell>
        <mxCell id="HdowyF9w5pSxeO63uC46-47" value="Learning Psth" style="shape=cylinder;whiteSpace=wrap;html=1;boundedLbl=1;backgroundOutline=1;rotation=90;spacingBottom=0;verticalAlign=middle;horizontal=0;fontSize=19;" vertex="1" parent="1">
          <mxGeometry x="950" y="910" width="195.07" height="280" as="geometry"/>
        </mxCell>
        <mxCell id="HdowyF9w5pSxeO63uC46-48" value="Course" style="rounded=0;whiteSpace=wrap;html=1;fontSize=19;" vertex="1" parent="1">
          <mxGeometry x="980" y="790" width="120" height="130" as="geometry"/>
        </mxCell>
        <mxCell id="HdowyF9w5pSxeO63uC46-50" value="&lt;b&gt;&lt;font style=&quot;font-size: 28px&quot;&gt;Section&lt;/font&gt;&lt;/b&gt;" style="shape=step;perimeter=stepPerimeter;whiteSpace=wrap;html=1;fixedSize=1;size=70;spacingBottom=0;verticalAlign=middle;horizontal=1;" vertex="1" parent="1">
          <mxGeometry x="920.0000000000002" y="500.00000000000006" width="265" height="244" as="geometry"/>
        </mxCell>
        <object label="&lt;b&gt;&lt;font style=&quot;font-size: 15px&quot;&gt;sub section&lt;/font&gt;&lt;/b&gt;" sub_section_name="" section_ID="" Prerequisites_IDs="" KSAT="[0,0,1,0]" Units="" MEG="[0,1,1]" id="HdowyF9w5pSxeO63uC46-51">
          <mxCell style="shape=hexagon;perimeter=hexagonPerimeter2;whiteSpace=wrap;html=1;size=0.26209523809523894;" vertex="1" parent="1">
            <mxGeometry x="980.0028205128206" y="334.437843137255" width="96.15384615384616" height="79.6078431372549" as="geometry"/>
          </mxCell>
        </object>
      </root>
    </mxGraphModel>
  </diagram>
</mxfile>
